<svg width="22" height="22" viewBox="0 0 22 22" fill="none" xmlns="http://www.w3.org/2000/svg">
<path d="M10.9999 1.8335C5.93992 1.8335 1.83325 5.94016 1.83325 11.0002C1.83325 16.0602 5.93992 20.1668 10.9999 20.1668C16.0599 20.1668 20.1666 16.0602 20.1666 11.0002C20.1666 5.94016 16.0599 1.8335 10.9999 1.8335ZM14.2083 11.6877H9.45075L11.0274 13.2643C11.2933 13.5302 11.2933 13.9702 11.0274 14.236C10.8899 14.3735 10.7158 14.4377 10.5416 14.4377C10.3674 14.4377 10.1933 14.3735 10.0558 14.236L7.30575 11.486C7.03992 11.2202 7.03992 10.7802 7.30575 10.5143L10.0558 7.76433C10.3216 7.4985 10.7616 7.4985 11.0274 7.76433C11.2933 8.03016 11.2933 8.47016 11.0274 8.736L9.45075 10.3127H14.2083C14.5841 10.3127 14.8958 10.6243 14.8958 11.0002C14.8958 11.376 14.5841 11.6877 14.2083 11.6877Z" fill="white"/>
</svg>
