<svg width="30" height="30" viewBox="0 0 30 30" fill="none" xmlns="http://www.w3.org/2000/svg">
<rect opacity="0.1" width="30" height="30" rx="6" fill="#E5890A"/>
<path d="M12 7.5V9.75" stroke="#E5890A" stroke-width="1.5" stroke-miterlimit="10" stroke-linecap="round" stroke-linejoin="round"/>
<path d="M18 7.5V9.75" stroke="#E5890A" stroke-width="1.5" stroke-miterlimit="10" stroke-linecap="round" stroke-linejoin="round"/>
<path d="M8.625 12.8174H21.375" stroke="#E5890A" stroke-width="1.5" stroke-miterlimit="10" stroke-linecap="round" stroke-linejoin="round"/>
<path d="M21.75 12.375V18.75C21.75 21 20.625 22.5 18 22.5H12C9.375 22.5 8.25 21 8.25 18.75V12.375C8.25 10.125 9.375 8.625 12 8.625H18C20.625 8.625 21.75 10.125 21.75 12.375Z" stroke="#E5890A" stroke-width="1.5" stroke-miterlimit="10" stroke-linecap="round" stroke-linejoin="round"/>
<path d="M17.771 16.2749H17.7778" stroke="#E5890A" stroke-width="1.5" stroke-linecap="round" stroke-linejoin="round"/>
<path d="M17.771 18.5249H17.7778" stroke="#E5890A" stroke-width="1.5" stroke-linecap="round" stroke-linejoin="round"/>
<path d="M14.9966 16.2749H15.0033" stroke="#E5890A" stroke-width="1.5" stroke-linecap="round" stroke-linejoin="round"/>
<path d="M14.9966 18.5249H15.0033" stroke="#E5890A" stroke-width="1.5" stroke-linecap="round" stroke-linejoin="round"/>
<path d="M12.2207 16.2749H12.2275" stroke="#E5890A" stroke-width="1.5" stroke-linecap="round" stroke-linejoin="round"/>
<path d="M12.2207 18.5249H12.2275" stroke="#E5890A" stroke-width="1.5" stroke-linecap="round" stroke-linejoin="round"/>
</svg>
