<svg width="15" height="15" viewBox="0 0 15 15" fill="none" xmlns="http://www.w3.org/2000/svg">
<path d="M9.73748 12.3126C8.41873 12.4063 8.41873 14.3188 9.73748 14.4126H12.8687C13.25 14.4126 13.6125 14.2751 13.8937 14.0188C14.8187 13.2126 14.325 11.5876 13.1062 11.4376C12.6687 8.80008 8.84998 9.80008 9.75623 12.3126" fill="#090B0E"/>
<path d="M9.73748 12.3126C8.41873 12.4063 8.41873 14.3188 9.73748 14.4126H12.8687C13.25 14.4126 13.6125 14.2751 13.8937 14.0188C14.8187 13.2126 14.325 11.5876 13.1062 11.4376C12.6687 8.80008 8.84998 9.80008 9.75623 12.3126" fill="#090B0E"/>
<path d="M13.75 6.91875V9.5875C13.75 9.7875 13.4313 9.875 13.2938 9.73125C13 9.425 12.6313 9.19375 12.2063 9.0625C11.225 8.75625 10.0938 9.05625 9.38125 9.79375C8.93125 10.275 8.6875 10.875 8.675 11.525C8.675 11.6375 8.61875 11.7375 8.53125 11.8062C8.08125 12.1625 7.80625 12.7188 7.80625 13.3563V13.3625C7.80625 13.5625 7.6625 13.7437 7.4625 13.7437H4.5875C2.75 13.75 1.25 12.25 1.25 10.4062V4.0125C1.25 2.4875 2.4875 1.25 4.0125 1.25H5.4625C6.48125 1.25 6.8 1.58125 7.20625 2.125L8.08125 3.2875C8.275 3.54375 8.3 3.575 8.6625 3.575H10.4063C11.8938 3.575 13.1563 4.55 13.5875 5.9C13.6813 6.18125 13.7313 6.46875 13.7438 6.775C13.75 6.81875 13.75 6.875 13.75 6.91875Z" fill="#090B0E"/>
</svg>
