<svg width="15" height="15" viewBox="0 0 15 15" fill="none" xmlns="http://www.w3.org/2000/svg">
<path d="M12.7958 4.58467C13.2784 5.08102 12.8143 5.78125 12.122 5.78125H2.25C1.69771 5.78125 1.25 5.33353 1.25 4.78125V4.0125C1.25 2.4875 2.4875 1.25 4.0125 1.25H5.4625C6.48125 1.25 6.8 1.58125 7.20625 2.125L8.08125 3.2875C8.275 3.54375 8.3 3.575 8.6625 3.575H10.4063C11.3428 3.575 12.1899 3.9616 12.7958 4.58467Z" fill="#090B0E"/>
<path d="M13.7409 7.71538C13.739 7.16441 13.2918 6.71876 12.7409 6.71877L2.24998 6.71895C1.69771 6.71896 1.25 7.16668 1.25 7.71895V10.4065C1.25 12.2502 2.75 13.7502 4.59375 13.7502H10.4063C12.25 13.7502 13.75 12.2502 13.75 10.4065L13.7409 7.71538ZM9.0625 10.469H8.00625V11.5627C8.00625 11.819 7.79375 12.0315 7.5375 12.0315C7.275 12.0315 7.06875 11.819 7.06875 11.5627V10.469H5.9375C5.68125 10.469 5.46875 10.2565 5.46875 10.0002C5.46875 9.74397 5.68125 9.53147 5.9375 9.53147H7.06875V8.43772C7.06875 8.18147 7.275 7.96897 7.5375 7.96897C7.79375 7.96897 8.00625 8.18147 8.00625 8.43772V9.53147H9.0625C9.31875 9.53147 9.53125 9.74397 9.53125 10.0002C9.53125 10.2565 9.31875 10.469 9.0625 10.469Z" fill="#090B0E"/>
</svg>
