<svg width="19" height="19" viewBox="0 0 19 19" fill="none" xmlns="http://www.w3.org/2000/svg">
<path d="M13.4582 3.95825C13.4582 3.48852 13.5975 3.02934 13.8584 2.63877C14.1194 2.24821 14.4903 1.9438 14.9243 1.76404C15.3583 1.58428 15.8358 1.53725 16.2965 1.62889C16.7572 1.72053 17.1804 1.94672 17.5125 2.27887C17.8447 2.61102 18.0709 3.03421 18.1625 3.49491C18.2542 3.95562 18.2071 4.43315 18.0274 4.86713C17.8476 5.3011 17.5432 5.67202 17.1526 5.93299C16.7621 6.19396 16.3029 6.33325 15.8332 6.33325C15.2033 6.33325 14.5992 6.08303 14.1538 5.63763C13.7084 5.19223 13.4582 4.58814 13.4582 3.95825ZM1.58317 4.74992H11.0832C11.2931 4.74992 11.4945 4.66651 11.643 4.51805C11.7914 4.36958 11.8748 4.16822 11.8748 3.95825C11.8748 3.74829 11.7914 3.54693 11.643 3.39846C11.4945 3.24999 11.2931 3.16659 11.0832 3.16659H1.58317C1.37321 3.16659 1.17184 3.24999 1.02338 3.39846C0.874911 3.54693 0.791504 3.74829 0.791504 3.95825C0.791504 4.16822 0.874911 4.36958 1.02338 4.51805C1.17184 4.66651 1.37321 4.74992 1.58317 4.74992ZM6.33317 7.12492C5.84317 7.1263 5.36559 7.2792 4.96591 7.56266C4.56623 7.84613 4.264 8.24628 4.10067 8.70825H1.58317C1.37321 8.70825 1.17184 8.79166 1.02338 8.94013C0.874911 9.08859 0.791504 9.28996 0.791504 9.49992C0.791504 9.70988 0.874911 9.91124 1.02338 10.0597C1.17184 10.2082 1.37321 10.2916 1.58317 10.2916H4.10067C4.2459 10.7024 4.50134 11.0653 4.83901 11.3406C5.17669 11.6159 5.5836 11.7931 6.01521 11.8526C6.44681 11.9122 6.88649 11.8519 7.28611 11.6783C7.68573 11.5047 8.02989 11.2245 8.28094 10.8684C8.53199 10.5123 8.68025 10.094 8.70949 9.65928C8.73872 9.22457 8.64781 8.79019 8.44671 8.40368C8.2456 8.01717 7.94205 7.69343 7.56928 7.46789C7.1965 7.24235 6.76887 7.1237 6.33317 7.12492ZM17.4165 8.70825H11.0832C10.8732 8.70825 10.6718 8.79166 10.5234 8.94013C10.3749 9.08859 10.2915 9.28996 10.2915 9.49992C10.2915 9.70988 10.3749 9.91124 10.5234 10.0597C10.6718 10.2082 10.8732 10.2916 11.0832 10.2916H17.4165C17.6265 10.2916 17.8278 10.2082 17.9763 10.0597C18.1248 9.91124 18.2082 9.70988 18.2082 9.49992C18.2082 9.28996 18.1248 9.08859 17.9763 8.94013C17.8278 8.79166 17.6265 8.70825 17.4165 8.70825ZM7.9165 14.2499H1.58317C1.37321 14.2499 1.17184 14.3333 1.02338 14.4818C0.874911 14.6303 0.791504 14.8316 0.791504 15.0416C0.791504 15.2515 0.874911 15.4529 1.02338 15.6014C1.17184 15.7498 1.37321 15.8333 1.58317 15.8333H7.9165C8.12647 15.8333 8.32783 15.7498 8.4763 15.6014C8.62476 15.4529 8.70817 15.2515 8.70817 15.0416C8.70817 14.8316 8.62476 14.6303 8.4763 14.4818C8.32783 14.3333 8.12647 14.2499 7.9165 14.2499ZM17.4165 14.2499H14.899C14.7123 13.7217 14.3448 13.2765 13.8615 12.993C13.3783 12.7096 12.8104 12.606 12.2582 12.7008C11.706 12.7955 11.2051 13.0824 10.844 13.5108C10.4829 13.9391 10.2848 14.4813 10.2848 15.0416C10.2848 15.6018 10.4829 16.1441 10.844 16.5724C11.2051 17.0007 11.706 17.2876 12.2582 17.3824C12.8104 17.4771 13.3783 17.3736 13.8615 17.0901C14.3448 16.8066 14.7123 16.3615 14.899 15.8333H17.4165C17.6265 15.8333 17.8278 15.7498 17.9763 15.6014C18.1248 15.4529 18.2082 15.2515 18.2082 15.0416C18.2082 14.8316 18.1248 14.6303 17.9763 14.4818C17.8278 14.3333 17.6265 14.2499 17.4165 14.2499Z" fill="#E5890A"/>
</svg>
