<svg width="30" height="30" viewBox="0 0 30 30" fill="none" xmlns="http://www.w3.org/2000/svg">
<circle cx="15" cy="15" r="15" fill="#F7F7F7"/>
<g clip-path="url(#clip0_3200_4381)">
<path d="M21.9788 9.86221L17.4466 5.32617H8.24883C7.84512 5.32617 7.51758 5.65371 7.51758 6.05742V19.0333H21.9788V9.86221Z" fill="white"/>
<path d="M17.4465 9.13096C17.4465 9.53467 17.7741 9.86221 18.1778 9.86221H21.9826L17.4465 5.32617V9.13096Z" fill="#DBDFE0"/>
<path d="M7.52148 19.0297V23.9428C7.52148 24.3465 7.84902 24.674 8.25273 24.674H21.2515C21.6552 24.674 21.9827 24.3465 21.9827 23.9428V19.0297H7.52148ZM11.0406 18.1994C10.8083 18.1994 10.5836 18.1118 10.3779 17.9404C10.0313 17.651 10.0047 17.3311 10.039 17.114C10.2065 16.1352 12.0271 15.2401 13.0858 14.7983C13.6609 13.3587 14.1599 11.6639 14.4684 10.3918C13.8514 9.07021 13.6343 8.13711 13.8247 7.60771C13.9199 7.34492 14.1142 7.17354 14.3884 7.1126L14.4265 7.10498L14.4646 7.10879C14.495 7.1126 14.7654 7.15449 14.9863 7.45156C15.272 7.84004 15.3367 8.46846 15.1768 9.32158C15.1311 9.56533 15.0549 9.91572 14.9559 10.3347C15.5195 11.5077 16.3117 12.8026 16.9592 13.7015C17.5 13.6253 18.0142 13.5986 18.4483 13.6443C19.2596 13.7281 19.431 14.0823 19.4614 14.288C19.5071 14.5889 19.2862 14.9012 18.9092 15.0611C18.3874 15.282 17.5343 15.2249 16.8411 14.3261C16.8106 14.288 16.7802 14.2461 16.7497 14.2042C15.8585 14.3527 14.8226 14.6346 13.7714 15.0269C13.6609 15.0688 13.5543 15.1106 13.4477 15.1525C12.7354 16.8969 12.0385 17.8985 11.372 18.1385C11.2653 18.1804 11.1511 18.1994 11.0406 18.1994ZM12.8307 15.4153C11.3187 16.0971 10.5684 16.7712 10.4998 17.1939C10.4846 17.2854 10.4846 17.4263 10.6788 17.5862C10.8578 17.7348 11.0292 17.7729 11.2196 17.7043C11.749 17.5139 12.3127 16.5998 12.8307 15.4153ZM17.2867 14.1318C17.8009 14.7374 18.3798 14.7869 18.7302 14.6346C18.913 14.5584 19.0158 14.4289 19.0044 14.3565C18.993 14.2804 18.8216 14.1509 18.4026 14.109C18.0903 14.0785 17.7133 14.0861 17.2867 14.1318ZM14.7883 11.0316C14.556 11.9267 14.2398 13.0045 13.8704 14.048C13.8057 14.2271 13.7447 14.3984 13.68 14.566C14.5064 14.2613 15.5043 13.9643 16.4526 13.7853C15.9423 13.0578 15.3139 12.0485 14.7883 11.0316ZM14.4455 7.58486C14.3579 7.61533 14.3008 7.67246 14.2665 7.77148C14.1332 8.13711 14.3084 8.82647 14.6474 9.6415C14.6778 9.49678 14.7045 9.36348 14.7273 9.2416C14.9025 8.29326 14.735 7.88574 14.6169 7.72959C14.5521 7.64199 14.4836 7.6001 14.4455 7.58486Z" fill="#F1786B"/>
<path d="M18.193 21.5582H17.3208V20.6708H18.193C18.3568 20.6708 18.4901 20.5375 18.4901 20.3737C18.4901 20.21 18.3568 20.0767 18.193 20.0767H17.0276C16.8638 20.0767 16.7305 20.21 16.7305 20.3737V23.3292C16.7305 23.493 16.8638 23.6263 17.0276 23.6263C17.1914 23.6263 17.3247 23.493 17.3247 23.3292V22.1485H18.1968C18.3606 22.1485 18.4939 22.0152 18.4939 21.8515C18.4901 21.6877 18.3568 21.5582 18.193 21.5582ZM11.9088 20.0805H11.3071C11.1433 20.0805 11.01 20.2138 11.01 20.3775V23.333C11.01 23.4968 11.1433 23.6301 11.3071 23.6301C11.4708 23.6301 11.6041 23.4968 11.6041 23.333V22.1523H11.9088C12.4801 22.1523 12.9448 21.6877 12.9448 21.1164C12.9448 20.5451 12.4801 20.0805 11.9088 20.0805ZM11.9088 21.5582H11.6041V20.6708H11.9088C12.1526 20.6708 12.3506 20.8688 12.3506 21.1126C12.3506 21.3563 12.1526 21.5582 11.9088 21.5582ZM14.4606 20.0805H13.6836C13.5199 20.0805 13.3866 20.2138 13.3866 20.3775V23.333C13.3866 23.4968 13.5199 23.6301 13.6836 23.6301H14.4606C15.4394 23.6301 16.2354 22.8341 16.2354 21.8553C16.2354 20.8727 15.4394 20.0805 14.4606 20.0805ZM14.4606 23.0321H13.9807V20.667H14.4606C15.1119 20.667 15.6413 21.1964 15.6413 21.8477C15.6451 22.5027 15.1119 23.0321 14.4606 23.0321Z" fill="#EFF3F5"/>
</g>
<defs>
<clipPath id="clip0_3200_4381">
<rect width="19.5" height="19.5" fill="white" transform="translate(5 5.25)"/>
</clipPath>
</defs>
</svg>
