<svg width="20" height="20" viewBox="0 0 20 20" fill="none" xmlns="http://www.w3.org/2000/svg">
<g clip-path="url(#clip0_3077_2739)">
<path d="M17.2283 4.86221L12.6961 0.326172H3.49837C3.09466 0.326172 2.76712 0.653711 2.76712 1.05742V14.0333H17.2283V4.86221Z" fill="white"/>
<path d="M12.6961 4.13096C12.6961 4.53467 13.0237 4.86221 13.4274 4.86221H17.2322L12.6961 0.326172V4.13096Z" fill="#DBDFE0"/>
<path d="M2.77094 14.0294V18.9425C2.77094 19.3462 3.09847 19.6738 3.50219 19.6738H16.5009C16.9046 19.6738 17.2322 19.3462 17.2322 18.9425V14.0294H2.77094ZM6.29008 13.1992C6.05775 13.1992 5.83304 13.1116 5.62738 12.9402C5.2808 12.6507 5.25414 12.3308 5.28842 12.1137C5.45599 11.1349 7.2765 10.2399 8.33529 9.7981C8.91039 8.35845 9.40931 6.66362 9.71781 5.39155C9.10082 4.06997 8.88373 3.13687 9.07416 2.60747C9.16937 2.34468 9.36361 2.17329 9.63783 2.11235L9.67592 2.10474L9.714 2.10854C9.74447 2.11235 10.0149 2.15425 10.2358 2.45132C10.5214 2.83979 10.5862 3.46821 10.4262 4.32134C10.3805 4.56509 10.3043 4.91548 10.2053 5.33442C10.769 6.50747 11.5612 7.80239 12.2086 8.70122C12.7495 8.62505 13.2636 8.59839 13.6978 8.64409C14.509 8.72788 14.6804 9.08208 14.7109 9.28774C14.7566 9.58862 14.5357 9.90093 14.1586 10.0609C13.6369 10.2818 12.7837 10.2247 12.0906 9.32583C12.0601 9.28774 12.0296 9.24585 11.9992 9.20396C11.1079 9.35249 10.072 9.63433 9.02084 10.0266C8.91039 10.0685 8.80375 10.1104 8.69711 10.1523C7.9849 11.8966 7.28793 12.8983 6.62142 13.1382C6.51478 13.1801 6.40053 13.1992 6.29008 13.1992ZM8.08012 10.4151C6.5681 11.0968 5.81781 11.7709 5.74926 12.1937C5.73402 12.2851 5.73402 12.426 5.92826 12.586C6.10726 12.7345 6.27865 12.7726 6.46908 12.7041C6.99847 12.5136 7.56215 11.5996 8.08012 10.4151ZM12.5362 9.13159C13.0503 9.73716 13.6292 9.78667 13.9796 9.63433C14.1624 9.55815 14.2653 9.42866 14.2538 9.3563C14.2424 9.28013 14.071 9.15064 13.6521 9.10874C13.3398 9.07827 12.9627 9.08589 12.5362 9.13159ZM10.0377 6.0314C9.80541 6.92642 9.48929 8.00425 9.11986 9.0478C9.05511 9.22681 8.99418 9.39819 8.92943 9.56577C9.7559 9.26108 10.7537 8.96401 11.7021 8.78501C11.1917 8.05757 10.5633 7.04829 10.0377 6.0314ZM9.69496 2.58462C9.60736 2.61509 9.55023 2.67222 9.51595 2.77124C9.38265 3.13687 9.55785 3.82622 9.89681 4.64126C9.92728 4.49653 9.95394 4.36323 9.97679 4.24136C10.152 3.29302 9.98441 2.8855 9.86635 2.72935C9.8016 2.64175 9.73304 2.59985 9.69496 2.58462Z" fill="#F1786B"/>
<path d="M13.4426 16.5584H12.5705V15.671H13.4426C13.6064 15.671 13.7397 15.5377 13.7397 15.374C13.7397 15.2102 13.6064 15.0769 13.4426 15.0769H12.2772C12.1134 15.0769 11.9801 15.2102 11.9801 15.374V18.3294C11.9801 18.4932 12.1134 18.6265 12.2772 18.6265C12.441 18.6265 12.5743 18.4932 12.5743 18.3294V17.1488H13.4464C13.6102 17.1488 13.7435 17.0155 13.7435 16.8517C13.7397 16.6879 13.6064 16.5584 13.4426 16.5584ZM7.15844 15.0807H6.55668C6.39291 15.0807 6.25961 15.214 6.25961 15.3778V18.3333C6.25961 18.497 6.39291 18.6303 6.55668 18.6303C6.72045 18.6303 6.85375 18.497 6.85375 18.3333V17.1526H7.15844C7.72973 17.1526 8.19438 16.6879 8.19438 16.1167C8.19438 15.5454 7.72973 15.0807 7.15844 15.0807ZM7.15844 16.5584H6.85375V15.671H7.15844C7.40219 15.671 7.60024 15.8691 7.60024 16.1128C7.60024 16.3566 7.40219 16.5584 7.15844 16.5584ZM9.7102 15.0807H8.93325C8.76948 15.0807 8.63618 15.214 8.63618 15.3778V18.3333C8.63618 18.497 8.76948 18.6303 8.93325 18.6303H9.7102C10.689 18.6303 11.485 17.8343 11.485 16.8555C11.485 15.8729 10.689 15.0807 9.7102 15.0807ZM9.7102 18.0324H9.23032V15.6672H9.7102C10.3615 15.6672 10.8909 16.1966 10.8909 16.8479C10.8947 17.503 10.3615 18.0324 9.7102 18.0324Z" fill="#EFF3F5"/>
</g>
<defs>
<clipPath id="clip0_3077_2739">
<rect width="19.5" height="19.5" fill="white" transform="translate(0.249634 0.25)"/>
</clipPath>
</defs>
</svg>
