<svg width="26" height="26" viewBox="0 0 26 26" fill="none" xmlns="http://www.w3.org/2000/svg">
<mask id="mask0_3191_7680" style="mask-type:alpha" maskUnits="userSpaceOnUse" x="0" y="0" width="26" height="26">
<rect width="26" height="26" fill="#D9D9D9"/>
</mask>
<g mask="url(#mask0_3191_7680)">
<path d="M7.01704 9.88828C7.01115 9.3483 7.48899 8.88615 8.08721 8.85765C8.37463 8.8473 8.64647 8.93616 8.85081 9.1157C9.05805 9.29136 9.1717 9.53404 9.1741 9.79296L9.17722 9.80833L9.20833 14.8711C9.20934 14.9989 9.32632 15.1002 9.47207 15.096C9.4857 15.0932 9.5035 15.0929 9.51738 15.0901C9.64101 15.065 9.73099 14.9634 9.73276 14.8479L9.68356 6.79175C9.68091 6.53288 9.79187 6.28624 9.99529 6.09122C10.1987 5.89619 10.4688 5.78367 10.7556 5.77038C11.043 5.76003 11.3149 5.84889 11.5221 6.02455C11.7258 6.20092 11.8424 6.43972 11.8415 6.69931L11.8841 13.5784C11.8852 13.7063 12.0021 13.8075 12.1479 13.8033C12.293 13.7962 12.4099 13.6861 12.4083 13.5551L12.3651 6.67607L12.3537 4.96516C12.3546 4.70557 12.4653 4.45899 12.6687 4.26396C12.8721 4.06894 13.1422 3.95642 13.429 3.94313C13.7164 3.93278 13.9883 4.02164 14.192 4.19801C14.3992 4.37367 14.5122 4.61319 14.5146 4.87211L14.5681 13.4589C14.5662 13.5907 14.6867 13.691 14.8283 13.6846C14.8461 13.6843 14.8597 13.6815 14.8736 13.6787C14.9972 13.6536 15.0914 13.5544 15.089 13.4365L15.0472 6.56052C15.0481 6.30093 15.1581 6.05118 15.3616 5.85615C15.5656 5.66429 15.8351 5.54861 16.1219 5.53532C16.4093 5.52497 16.6811 5.61383 16.8848 5.7902C17.0921 5.96586 17.2051 6.20538 17.2075 6.4643L17.2468 12.8702L17.2475 12.8734L17.2658 15.8317C16.4775 15.9981 15.3966 16.3586 14.3502 17.1377C13.0896 18.0757 12.4646 19.1859 12.1586 19.9493C12.1124 20.074 12.1823 20.2069 12.3155 20.2472C12.4516 20.2836 12.6018 20.2147 12.6522 20.0924C12.9304 19.386 13.5088 18.3623 14.6735 17.4982C15.6536 16.7643 16.6729 16.4325 17.4039 16.2841C17.4589 16.2729 17.5143 16.265 17.5693 16.2538C17.5728 16.2531 17.5728 16.2531 17.5761 16.2524C17.5796 16.2517 17.5858 16.2471 17.5926 16.2458C17.7189 16.2168 17.7885 16.1196 17.7879 16.0107L17.771 12.8473C17.77 12.5785 17.8851 12.3183 18.0982 12.118C18.3107 11.9148 18.5905 11.797 18.8915 11.7839C19.9221 11.7379 20.0196 12.5698 20.0356 13.5816C20.0587 14.8387 20.0801 16.1408 19.7875 17.4106C19.3677 19.2154 17.9223 20.8795 15.9199 21.8593C14.0602 22.7685 12.0286 22.9186 10.3459 22.2707C7.40077 21.1429 7.06278 17.7373 7.05507 16.3267L7.01704 9.88828Z" fill="#F4C154"/>
</g>
</svg>
