<svg width="20" height="20" viewBox="0 0 20 20" fill="none" xmlns="http://www.w3.org/2000/svg">
<path d="M13.1111 6.37012H7.15945H6.88892V10.4732L9.3237 13.1109H10.9469L13.1111 10.7663V6.37012Z" fill="white" fill-opacity="0.8"/>
<path d="M10 12.7222C11.7189 12.7222 13.1111 11.3299 13.1111 9.61106V5.33328C13.1111 3.61439 11.7189 2.22217 10 2.22217C8.28114 2.22217 6.88892 3.61439 6.88892 5.33328V9.61106C6.88892 11.3299 8.28114 12.7222 10 12.7222Z" stroke="white" stroke-width="2.25" stroke-linecap="round" stroke-linejoin="round"/>
<path d="M4.05029 8.17236V9.49459C4.05029 12.7768 6.71807 15.4446 10.0003 15.4446C13.2825 15.4446 15.9503 12.7768 15.9503 9.49459V8.17236" stroke="white" stroke-width="2.25" stroke-linecap="round" stroke-linejoin="round"/>
<path d="M10 15.4443V17.7777" stroke="white" stroke-width="2.25" stroke-linecap="round" stroke-linejoin="round"/>
</svg>
