<svg width="15" height="15" viewBox="0 0 15 15" fill="none" xmlns="http://www.w3.org/2000/svg">
<path d="M10.5189 9.7751C10.9377 9.5001 11.4877 9.8001 11.4877 10.3001V11.1063C11.4877 11.9001 10.8689 12.7501 10.1252 13.0001L8.13145 13.6626C7.78145 13.7813 7.2127 13.7813 6.86895 13.6626L4.8752 13.0001C4.1252 12.7501 3.5127 11.9001 3.5127 11.1063V10.2938C3.5127 9.8001 4.0627 9.5001 4.4752 9.76885L5.7627 10.6063C6.25645 10.9376 6.88145 11.1001 7.50645 11.1001C8.13145 11.1001 8.75645 10.9376 9.2502 10.6063L10.5189 9.7751Z" fill="#292D32"/>
<path d="M12.4877 4.0376L8.74395 1.58135C8.06894 1.1376 6.95645 1.1376 6.28145 1.58135L2.51895 4.0376C1.3127 4.81885 1.3127 6.5876 2.51895 7.3751L3.51895 8.0251L6.28145 9.8251C6.95645 10.2688 8.06894 10.2688 8.74395 9.8251L11.4877 8.0251L12.3439 7.4626V9.3751C12.3439 9.63135 12.5564 9.84385 12.8127 9.84385C13.0689 9.84385 13.2814 9.63135 13.2814 9.3751V6.3001C13.5314 5.49385 13.2752 4.55635 12.4877 4.0376Z" fill="#292D32"/>
</svg>
