<svg width="15" height="15" viewBox="0 0 15 15" fill="none" xmlns="http://www.w3.org/2000/svg">
<rect x="0.5" y="0.5" width="14" height="14" stroke="black"/>
<path d="M7.92353 12.4733C8.09524 12.5133 8.11097 12.7382 7.94372 12.7939L6.95622 13.1189C4.47497 13.9189 3.16872 13.2502 2.36247 10.7689L1.56247 8.3002C0.762469 5.81895 1.42497 4.50645 3.90622 3.70645C4.28787 3.58006 4.66787 3.96594 4.57154 4.35626C4.56641 4.37702 4.56131 4.39792 4.55622 4.41895L3.94372 7.0377C3.25622 9.98145 4.26247 11.6064 7.20622 12.3064L7.92353 12.4733Z" fill="#292D32"/>
<path d="M10.7314 2.00632L9.68761 1.76257C7.60011 1.26882 6.35636 1.67507 5.62511 3.18757C5.43761 3.56882 5.28761 4.03132 5.16261 4.56257L4.55011 7.18132C3.93761 9.79382 4.74386 11.0813 7.35011 11.7001L8.40011 11.9501C8.76261 12.0376 9.10011 12.0938 9.41261 12.1188C11.3626 12.3063 12.4001 11.3938 12.9251 9.13757L13.5376 6.52507C14.1501 3.91257 13.3501 2.61882 10.7314 2.00632ZM9.55636 8.33132C9.50011 8.54382 9.31261 8.68132 9.10011 8.68132C9.06261 8.68132 9.02511 8.67507 8.98136 8.66882L7.16261 8.20632C6.91261 8.14382 6.76261 7.88757 6.82511 7.63757C6.88761 7.38757 7.14386 7.23757 7.39386 7.30007L9.21261 7.76257C9.46886 7.82507 9.61886 8.08132 9.55636 8.33132ZM11.3876 6.21882C11.3314 6.43132 11.1439 6.56882 10.9314 6.56882C10.8939 6.56882 10.8564 6.56257 10.8126 6.55632L7.78136 5.78757C7.53136 5.72507 7.38136 5.46882 7.44386 5.21882C7.50636 4.96882 7.76261 4.81882 8.01261 4.88132L11.0439 5.65007C11.3001 5.70632 11.4501 5.96257 11.3876 6.21882Z" fill="#292D32"/>
</svg>
