<svg width="30" height="30" viewBox="0 0 30 30" fill="none" xmlns="http://www.w3.org/2000/svg">
<rect opacity="0.1" width="30" height="30" rx="6" fill="#E5890A"/>
<path d="M19.5001 11.37C19.4551 11.3625 19.4026 11.3625 19.3576 11.37C18.3226 11.3325 17.4976 10.485 17.4976 9.435C17.4976 8.3625 18.3601 7.5 19.4326 7.5C20.5051 7.5 21.3676 8.37 21.3676 9.435C21.3601 10.485 20.5351 11.3325 19.5001 11.37Z" stroke="#E5890A" stroke-width="1.5" stroke-linecap="round" stroke-linejoin="round"/>
<path d="M18.7276 16.8301C19.7551 17.0026 20.8876 16.8226 21.6826 16.2901C22.7401 15.5851 22.7401 14.4301 21.6826 13.7251C20.8801 13.1926 19.7326 13.0126 18.7051 13.1926" stroke="#E5890A" stroke-width="1.5" stroke-linecap="round" stroke-linejoin="round"/>
<path d="M10.4775 11.37C10.5225 11.3625 10.575 11.3625 10.62 11.37C11.655 11.3325 12.48 10.485 12.48 9.435C12.48 8.3625 11.6175 7.5 10.545 7.5C9.47249 7.5 8.60999 8.37 8.60999 9.435C8.61749 10.485 9.44249 11.3325 10.4775 11.37Z" stroke="#E5890A" stroke-width="1.5" stroke-linecap="round" stroke-linejoin="round"/>
<path d="M11.25 16.8301C10.2225 17.0026 9.08996 16.8226 8.29496 16.2901C7.23746 15.5851 7.23746 14.4301 8.29496 13.7251C9.09746 13.1926 10.245 13.0126 11.2725 13.1926" stroke="#E5890A" stroke-width="1.5" stroke-linecap="round" stroke-linejoin="round"/>
<path d="M15.0001 16.9725C14.9551 16.965 14.9026 16.965 14.8576 16.9725C13.8226 16.935 12.9976 16.0875 12.9976 15.0375C12.9976 13.965 13.8601 13.1025 14.9326 13.1025C16.0051 13.1025 16.8676 13.9725 16.8676 15.0375C16.8601 16.0875 16.0351 16.9425 15.0001 16.9725Z" stroke="#E5890A" stroke-width="1.5" stroke-linecap="round" stroke-linejoin="round"/>
<path d="M12.8175 19.335C11.76 20.04 11.76 21.195 12.8175 21.9C14.0175 22.7025 15.9825 22.7025 17.1825 21.9C18.24 21.195 18.24 20.04 17.1825 19.335C15.99 18.54 14.0175 18.54 12.8175 19.335Z" stroke="#E5890A" stroke-width="1.5" stroke-linecap="round" stroke-linejoin="round"/>
</svg>
