<svg width="20" height="20" viewBox="0 0 20 20" fill="none" xmlns="http://www.w3.org/2000/svg">
<path d="M10.4122 16.5494H5.49661C3.03883 16.5494 2.22217 14.9161 2.22217 13.275V6.7261C2.22217 4.26833 3.03883 3.45166 5.49661 3.45166H10.4122C12.8699 3.45166 13.6866 4.26833 13.6866 6.7261V13.275C13.6866 15.7328 12.8622 16.5494 10.4122 16.5494Z" stroke="white" stroke-width="2.25" stroke-linecap="round" stroke-linejoin="round"/>
<path d="M15.8487 13.9671L13.6865 12.4504V7.54265L15.8487 6.02598C16.9065 5.28709 17.7776 5.73821 17.7776 7.03709V12.9638C17.7776 14.2626 16.9065 14.7138 15.8487 13.9671Z" stroke="white" stroke-width="2.25" stroke-linecap="round" stroke-linejoin="round"/>
<path d="M9.61125 9.22249C10.2556 9.22249 10.7779 8.70016 10.7779 8.05583C10.7779 7.41149 10.2556 6.88916 9.61125 6.88916C8.96691 6.88916 8.44458 7.41149 8.44458 8.05583C8.44458 8.70016 8.96691 9.22249 9.61125 9.22249Z" stroke="white" stroke-width="2.25" stroke-linecap="round" stroke-linejoin="round"/>
</svg>
