<svg width="30" height="30" viewBox="0 0 30 30" fill="none" xmlns="http://www.w3.org/2000/svg">
<path d="M13.5375 7.89747L9.02251 10.845C7.57501 11.79 7.57501 13.905 9.02251 14.85L13.5375 17.7975C14.3475 18.33 15.6825 18.33 16.4925 17.7975L20.985 14.85C22.425 13.905 22.425 11.7975 20.985 10.8525L16.4925 7.90497C15.6825 7.36497 14.3475 7.36497 13.5375 7.89747Z" stroke="#E5890A" stroke-width="1.5" stroke-linecap="round" stroke-linejoin="round"/>
<path d="M10.2225 15.8101L10.215 19.3276C10.215 20.2801 10.95 21.3001 11.85 21.6001L14.2425 22.3951C14.655 22.5301 15.3375 22.5301 15.7575 22.3951L18.15 21.6001C19.05 21.3001 19.785 20.2801 19.785 19.3276V15.8476" stroke="#E5890A" stroke-width="1.5" stroke-linecap="round" stroke-linejoin="round"/>
<path d="M22.05 17.25V12.75" stroke="#E5890A" stroke-width="1.5" stroke-linecap="round" stroke-linejoin="round"/>
<rect opacity="0.1" width="30" height="30" rx="6" fill="#E5890A"/>
</svg>
